
<svg width="48" height="48" viewBox="0 0 48 48" fill="none" xmlns="http://www.w3.org/2000/svg">
<path d="M40.3096 2.90461C40.1554 2.92981 36.4978 3.54781 32.8636 5.98801C29.8318 8.02321 26.2894 11.6772 25.4668 17.8716H22.5202C21.6982 11.6778 18.1552 8.02381 15.1234 5.98801C11.4892 3.54781 7.83096 2.92981 7.67736 2.90461L4.49316 2.38501V35.5656H13.84C16.627 41.46 22.3906 44.7252 22.6588 44.8746L23.9932 45.618L25.3276 44.8746C25.5958 44.7252 31.3594 41.46 34.1464 35.5656H43.4932V2.38501L40.309 2.90461H40.3096Z" fill="black"/>
<path d="M40.7512 5.61181V32.823H32.2924C30.2974 38.9676 23.9932 42.4788 23.9932 42.4788C23.9932 42.4788 17.689 38.9676 15.694 32.823H7.23516V5.61181C7.23516 5.61181 19.9534 7.68661 19.9534 20.6142H28.033C28.033 7.68661 40.7512 5.61181 40.7512 5.61181ZM43.4938 2.38501L40.3096 2.90461C40.1554 2.92981 36.4978 3.54781 32.8636 5.98801C29.8318 8.02321 26.2894 11.6772 25.4668 17.8716H22.5202C21.6982 11.6778 18.1552 8.02381 15.1234 5.98801C11.4892 3.54781 7.83096 2.92981 7.67736 2.90461L4.49316 2.38501V35.5656H13.84C16.627 41.46 22.3906 44.7252 22.6588 44.8746L23.9932 45.618L25.3276 44.8746C25.5958 44.7252 31.3594 41.46 34.1464 35.5656H43.4932V2.38501H43.4938Z" fill="white"/>
<path d="M39.4126 21.771C39.1756 21.6336 38.8552 21.3744 38.6746 21.1044C38.3392 20.604 37.9192 20.2758 37.3972 20.1084C37.3864 20.1048 37.3798 20.0946 37.3816 20.0838L37.4104 19.9032C37.4482 19.6632 37.3918 19.4214 37.2688 19.212C37.2388 19.1604 37.21 19.1022 37.1812 19.0338C36.832 18.1938 36.16 17.3712 35.0758 16.461C35.0674 16.4538 35.065 16.4412 35.071 16.4316C35.5282 15.7188 35.9062 14.7858 36.223 13.5936L36.3952 12.9438C36.4 12.9246 36.3808 12.909 36.3628 12.9174L35.7598 13.2138C35.7502 13.2186 35.2186 13.4742 34.075 13.818L34.0708 13.8192L34.0666 13.8204C33.2584 14.085 32.5966 14.5398 32.1172 14.9538C32.113 14.9574 32.107 14.9598 32.101 14.9592L31.6732 14.9298L31.1494 14.8938L30.9364 14.8788C30.9268 14.8782 30.9178 14.8836 30.9142 14.892L30.8266 15.087C29.7898 17.4036 29.2498 19.6002 29.2228 21.615L29.2192 21.8958C29.2192 21.9036 29.215 21.9114 29.2078 21.915C28.6702 22.224 28.1638 22.5636 27.6832 22.9374C27.6766 22.9422 27.6682 22.9434 27.6604 22.9404C26.6728 22.4946 25.6234 22.2342 24.541 22.1652H24.5308L24.5206 22.1646H23.4466C22.3642 22.2342 21.3148 22.4946 20.3272 22.9404C20.3194 22.944 20.311 22.9428 20.3044 22.9374C19.8238 22.5636 19.3174 22.224 18.7798 21.915C18.7726 21.9108 18.7684 21.9036 18.7684 21.8958L18.7648 21.615C18.7378 19.6002 18.1978 17.4036 17.161 15.087L17.0734 14.892C17.0692 14.883 17.0602 14.8776 17.0512 14.8788L16.8382 14.8938L16.3144 14.9298L15.8866 14.9592C15.8806 14.9592 15.8752 14.958 15.8704 14.9538C15.391 14.5392 14.7292 14.085 13.921 13.8204L13.9168 13.8192L13.9126 13.818C12.7642 13.473 12.2332 13.2162 12.2278 13.2138L11.626 12.9198C11.6086 12.9114 11.5888 12.927 11.5936 12.9462L11.7652 13.5936C12.0814 14.7858 12.4594 15.7188 12.9172 16.4316C12.9232 16.4412 12.9214 16.4538 12.9124 16.461C11.8282 17.3712 11.1562 18.1938 10.807 19.0338C10.7788 19.1022 10.75 19.161 10.72 19.212C10.5964 19.4214 10.5406 19.6638 10.5784 19.9044L10.6066 20.0844C10.6084 20.0952 10.6018 20.106 10.591 20.109C10.069 20.2764 9.64899 20.6046 9.31359 21.105C9.13299 21.3744 8.81259 21.6342 8.57559 21.771C8.00319 22.1022 7.87299 22.2978 7.94139 22.7202L7.94739 22.7586C8.00739 23.1492 8.49159 23.3808 8.71359 23.4672C8.73039 23.502 8.75199 23.535 8.77839 23.565L9.04179 23.862C9.13719 23.9802 9.27759 24.0474 9.42999 24.0474C9.45819 24.0474 9.48579 24.0444 9.51339 24.0396C9.53919 24.1746 9.61599 24.2946 9.73179 24.3708L10.0882 24.6054L10.4188 24.8232C10.4314 24.8316 10.4482 24.8256 10.453 24.8112L10.5196 24.6162C10.525 24.6006 10.5448 24.5958 10.5568 24.6072C10.603 24.6516 10.6522 24.693 10.7062 24.7284C10.9084 24.8616 11.2318 25.0278 11.62 25.0602L12.3802 25.1238C12.4006 25.1256 12.4126 25.1016 12.3994 25.086L11.8936 24.5148C11.7934 24.4014 11.6992 24.1728 11.632 23.8872C11.6278 23.8686 11.6464 23.853 11.6638 23.8608L11.9002 23.967C11.917 23.9748 11.9356 23.9598 11.932 23.9412L11.8858 23.7246C11.8822 23.7072 11.8984 23.6928 11.9146 23.6982C12.1036 23.7588 12.3124 23.7942 12.3652 23.8026L12.9724 23.9004C12.991 23.9034 13.0048 23.8836 12.9964 23.8674L12.7084 23.3238L12.6886 23.286C12.6748 23.2596 12.664 23.2314 12.6574 23.202L12.6388 23.121C12.6334 23.0856 12.6316 23.0418 12.649 23.0178C12.6532 23.0124 12.6586 23.007 12.6646 23.0016L12.7282 23.0742C12.8032 23.1588 12.9034 23.2224 13.0156 23.2362C13.225 23.2614 13.414 23.1426 13.4842 22.953C13.5184 22.965 13.5538 22.9716 13.5898 22.9752C13.474 23.2866 13.3816 23.6862 13.3786 24.1728C13.3762 24.6 13.2622 24.8946 13.0492 25.0248C12.8206 25.164 12.664 25.383 12.6094 25.6302C12.5914 25.6386 12.5848 25.6416 12.5668 25.6506L11.872 25.2816C11.8534 25.272 11.8324 25.29 11.8402 25.3098L12.1324 26.0724C12.2788 26.4546 12.5368 26.7762 12.727 26.9784C12.7822 27.0372 12.85 27.0804 12.9238 27.1104C12.9352 27.1152 12.9406 27.1272 12.9358 27.1386C12.85 27.3528 12.9166 27.6024 13.1074 27.7422L13.411 27.9636L13.4134 27.9654L13.4158 27.9672C13.7554 28.2054 14.0596 28.3212 14.3476 28.3212C14.5696 28.3212 14.7772 28.2522 14.9638 28.116L15.0316 28.0662L15.0676 27.99L15.4822 27.1062L15.7432 26.5494L15.5944 26.5716C15.6256 26.5254 15.6568 26.4774 15.688 26.4282L16.0312 25.8828L15.8446 25.8948C15.9226 25.8042 16.0024 25.7064 16.084 25.6008L16.5436 25.0074C16.5556 24.9918 16.5802 24.9978 16.5838 25.0176C16.7584 25.983 17.0632 26.8818 17.5012 27.7074C17.5042 27.7128 17.5048 27.7194 17.5024 27.7254L17.1604 28.695C17.155 28.7094 17.1376 28.7148 17.125 28.7058L16.9216 28.5534L16.3972 28.1604C16.3816 28.149 16.3594 28.1604 16.3606 28.1796L16.3954 28.8342C16.426 29.4138 16.573 29.9358 16.8334 30.3972C16.843 30.414 16.8286 30.4344 16.8094 30.4302L16.42 30.3444C16.4008 30.3402 16.3852 30.3612 16.3954 30.378L16.7446 30.9804C17.0416 31.4922 17.359 31.92 17.7034 32.2686L17.5228 32.2488L17.9464 32.8458C18.6328 33.8136 19.4788 34.5222 20.4622 34.9524C20.4664 34.9542 20.4694 34.9566 20.4724 34.9608C20.5822 35.136 20.833 35.7846 21.406 37.7712C21.5326 38.211 21.7276 38.6262 21.9844 39.0042C22.2388 39.3852 23.3134 39.645 23.9326 39.7662L23.9956 39.7788L24.0586 39.7662C24.6778 39.645 25.753 39.3852 26.0068 39.0042C26.2636 38.6262 26.4586 38.211 26.5852 37.7712C27.1582 35.7846 27.409 35.1366 27.5188 34.9614C27.5212 34.9578 27.5248 34.9548 27.529 34.953C28.5106 34.524 29.3572 33.8154 30.0448 32.8464L30.4684 32.2494L30.2878 32.2692C30.6322 31.92 30.9496 31.4922 31.2466 30.981L31.5958 30.3786C31.606 30.3612 31.5904 30.3408 31.5712 30.345L31.1818 30.4308C31.1626 30.435 31.1482 30.4152 31.1578 30.3978C31.4182 29.937 31.5646 29.4144 31.5958 28.8348L31.6306 28.1802C31.6318 28.161 31.6096 28.149 31.594 28.161L31.0696 28.554L30.8662 28.7064C30.8536 28.7154 30.8362 28.71 30.8308 28.6956L30.4888 27.726C30.487 27.72 30.487 27.7134 30.49 27.708C30.9286 26.8824 31.2334 25.9836 31.408 25.0182C31.4116 24.999 31.4362 24.9924 31.4482 25.008L31.9078 25.6014C31.9894 25.707 32.0692 25.8048 32.1472 25.8954L31.9606 25.8834L32.3038 26.4288C32.335 26.478 32.3662 26.526 32.3974 26.5722L32.2486 26.55L32.5096 27.1068L32.9242 27.9906L32.9602 28.0668L33.028 28.1166C33.2146 28.2528 33.4216 28.3218 33.6442 28.3218C33.9316 28.3218 34.2364 28.206 34.576 27.9678L34.5784 27.966L34.5808 27.9642L34.8844 27.7428C35.0752 27.603 35.1418 27.3534 35.056 27.1392C35.0512 27.1278 35.056 27.1152 35.068 27.111C35.1418 27.0816 35.2096 27.0378 35.2648 26.979C35.4556 26.7762 35.7136 26.4546 35.86 26.073L36.1522 25.3104C36.16 25.2906 36.139 25.272 36.1204 25.2822L35.425 25.6512C35.407 25.6428 35.4004 25.6392 35.3824 25.6308C35.3272 25.3836 35.1706 25.1646 34.9426 25.0254C34.7296 24.8952 34.6156 24.6006 34.6132 24.1734C34.6102 23.6874 34.5178 23.2878 34.402 22.9758C34.438 22.9722 34.4734 22.9656 34.5076 22.9536C34.5778 23.1432 34.7668 23.262 34.9756 23.2368C35.0878 23.223 35.188 23.16 35.263 23.0754L35.3272 23.0028C35.3332 23.0076 35.3386 23.013 35.3428 23.019C35.3602 23.043 35.3584 23.0868 35.353 23.1222L35.3344 23.2032C35.3278 23.232 35.317 23.2608 35.3032 23.2872L35.2834 23.325L34.9954 23.8686C34.9864 23.8854 35.0008 23.9046 35.0194 23.9016L35.6266 23.8038C35.6794 23.7954 35.8882 23.7594 36.0766 23.6994C36.0934 23.694 36.1096 23.7084 36.1054 23.7258L36.0574 23.949C36.0532 23.9676 36.0724 23.9826 36.0892 23.9748L36.3274 23.8656C36.3448 23.8578 36.364 23.8734 36.3592 23.892C36.292 24.1758 36.1984 24.4032 36.0988 24.516L35.593 25.0872C35.5792 25.1028 35.5918 25.1268 35.6122 25.125L36.3724 25.0614C36.7606 25.029 37.0834 24.8628 37.2862 24.7296C37.3402 24.6942 37.3894 24.6528 37.4356 24.6084C37.4476 24.597 37.4674 24.6012 37.4728 24.6174L37.5394 24.8124C37.5442 24.8268 37.561 24.8322 37.5736 24.8244L37.9042 24.6066L38.2606 24.372C38.3764 24.2958 38.4532 24.1758 38.479 24.0408C38.506 24.0456 38.5342 24.0486 38.5624 24.0486C38.7148 24.0486 38.8552 23.9814 38.9506 23.8632L39.214 23.5662C39.2404 23.5362 39.262 23.5038 39.2788 23.4684C39.5008 23.382 39.9844 23.151 40.045 22.7598L40.051 22.7214C40.1194 22.2984 39.9892 22.1034 39.4168 21.7722L39.4126 21.771Z" fill="black"/>
<path d="M22.8343 36.3629V35.9237L22.9285 35.5661C23.0353 35.2811 22.8883 35.0207 22.6465 34.8635C22.6267 34.9805 22.6033 35.1383 22.4893 35.1047L22.1191 34.8293L22.1605 35.1485C22.1947 35.3231 22.2799 35.4833 22.4047 35.6099L22.6837 35.8925L22.2697 35.7419L22.3075 36.0929L22.5583 36.2747L22.5373 36.2861C22.3591 36.3821 22.2529 36.5735 22.2667 36.7751L22.2883 37.0901C22.3909 36.7589 22.5901 36.5357 22.8337 36.3623L22.8343 36.3629Z" fill="white"/>
<path d="M23.8803 35.0052L23.8329 34.6086C23.8221 34.5192 23.7837 34.4352 23.7225 34.3692C23.6883 34.332 23.6289 34.3332 23.5965 34.3716L23.4669 34.5234L23.2347 34.383C23.1897 34.3554 23.1303 34.3764 23.1117 34.4256L23.0505 34.5894L22.7193 34.3986L22.6641 34.6164C22.8579 34.7844 23.0763 35.0898 23.1039 35.4018L23.1633 36.8016C23.2221 37.2294 23.4183 37.3926 23.6913 37.4088H24.2979C24.5709 37.3926 24.7677 37.2294 24.8259 36.8016L24.8853 35.4018C24.9129 35.0898 25.1313 34.785 25.3251 34.6164L25.2699 34.3986L24.9387 34.5894L24.8775 34.4256C24.8589 34.3758 24.8001 34.3554 24.7545 34.383L24.5223 34.5234L24.3927 34.3716C24.3597 34.3332 24.3009 34.332 24.2661 34.3692C24.2049 34.4352 24.1665 34.5192 24.1557 34.6086L24.1083 35.0052C24.0603 35.4066 24.0621 35.8116 24.1035 36.2136C24.1143 36.3168 24.1209 36.4194 24.1191 36.5046V36.5106C24.1143 36.6672 23.8737 36.6672 23.8695 36.5106V36.5046C23.8677 36.4194 23.8743 36.3168 23.8845 36.2136C23.9259 35.8116 23.9277 35.406 23.8797 35.0046L23.8803 35.0052Z" fill="white"/>
<path d="M25.2032 36.7013C25.145 37.1015 25.0904 37.4645 24.9668 37.6757L24.9296 37.5569C24.8468 37.6133 24.5912 37.6661 24.269 37.7351C24.089 37.7735 23.9012 37.7735 23.7212 37.7351C23.399 37.6661 23.1434 37.6133 23.0606 37.5569L23.0234 37.6757C22.9004 37.4645 22.8458 37.1015 22.787 36.7013C22.7834 36.6785 22.754 36.6701 22.7402 36.6887C22.5482 36.9449 22.3952 37.2389 22.385 37.6337C22.3808 37.8077 22.4414 38.0189 22.4846 38.1407C22.4846 38.1413 22.6934 38.1557 22.6946 38.1551C22.814 38.1401 22.964 38.0819 22.964 38.0819L23.567 38.1881C23.8502 38.2379 24.1394 38.2379 24.4226 38.1881L25.0256 38.0819C25.0256 38.0819 25.1756 38.1401 25.295 38.1551C25.2956 38.1551 25.5044 38.1413 25.505 38.1407C25.5482 38.0189 25.6088 37.8071 25.6046 37.6337C25.5944 37.2395 25.4414 36.9449 25.2494 36.6887C25.2356 36.6701 25.2062 36.6785 25.2026 36.7013H25.2032Z" fill="white"/>
<path d="M25.3427 34.8642C25.1009 35.0214 24.9539 35.2818 25.0607 35.5668L25.1549 35.9244V36.3636C25.3991 36.537 25.5983 36.7596 25.7004 37.0914L25.7219 36.7776C25.7357 36.5754 25.6301 36.3834 25.4513 36.2874L25.4309 36.2766L25.6818 36.0948L25.7195 35.7438L25.3055 35.8944L25.5845 35.6118C25.7093 35.4852 25.7945 35.325 25.8287 35.1504L25.8701 34.8318L25.4999 35.1072C25.3865 35.1408 25.3631 34.983 25.3427 34.866V34.8642Z" fill="white"/>
<path d="M25.3999 31.6003L25.3195 31.4155C25.3021 31.3747 25.2565 31.3477 25.2061 31.3477H22.7827C22.7323 31.3477 22.6873 31.3747 22.6693 31.4155L22.5889 31.6003C22.5889 31.6003 23.6443 31.4995 23.9815 31.6885C23.9845 31.6903 23.9869 31.6903 23.9893 31.6909C23.9905 31.6909 23.9923 31.6921 23.9941 31.6921C23.9959 31.6921 23.9971 31.6915 23.9989 31.6909C24.0013 31.6909 24.0037 31.6909 24.0067 31.6885C24.3439 31.4995 25.3993 31.6003 25.3993 31.6003H25.3999Z" fill="white"/>
<path d="M22.4588 34.7947C22.4954 34.8211 22.5452 34.7893 22.5398 34.7443C22.472 34.2061 22.4384 33.8617 22.4576 33.4807C22.4588 33.4531 22.4516 33.4267 22.442 33.4009L22.2974 32.9857C22.2326 32.9101 22.1258 32.8447 22.0262 32.7883C21.7502 32.6317 21.4238 32.8861 21.4238 32.8861C21.4238 32.8861 21.4664 33.4609 21.8708 34.1083C22.0964 34.4695 22.3262 34.6993 22.4588 34.7953V34.7947Z" fill="white"/>
<path d="M22.6631 31.0607L22.9043 31.0535C22.9043 31.0535 22.8791 30.8753 22.6841 30.6845C22.5065 30.5099 22.2755 30.3737 22.1681 30.3221C22.1027 30.2909 22.1063 30.1931 22.1753 30.1715C22.2275 30.1553 22.3229 30.1619 22.4927 30.2237C22.9613 30.3941 23.2277 30.9977 23.2277 30.9977L23.9933 30.9041L24.7589 30.9977C24.7589 30.9977 25.0253 30.3941 25.4939 30.2237C25.6637 30.1619 25.7585 30.1553 25.8113 30.1715C25.8809 30.1931 25.8839 30.2909 25.8185 30.3221C25.7111 30.3737 25.4801 30.5099 25.3025 30.6845C25.1081 30.8753 25.0823 31.0535 25.0823 31.0535L25.3235 31.0607C25.3235 31.0607 25.6997 30.6203 26.7221 30.6203H27.1055L26.8331 30.3785C26.7203 30.2783 26.5751 30.2231 26.4245 30.2231H26.0411L26.4527 29.7833L26.1161 29.6759C25.6289 29.5217 25.1261 29.7401 24.7979 30.1133C24.7373 30.1829 24.6755 30.2615 24.6137 30.3515L24.4091 30.6731C24.4091 30.6731 24.3011 30.5927 24.3293 30.3725C24.3575 30.1523 24.8333 29.6483 24.8333 29.6483L24.2585 29.5703L23.9927 30.0485L23.7269 29.5703L23.1521 29.6483C23.1521 29.6483 23.6279 30.1523 23.6561 30.3725C23.6843 30.5927 23.5763 30.6731 23.5763 30.6731L23.3717 30.3515C23.3099 30.2615 23.2487 30.1829 23.1875 30.1133C22.8599 29.7401 22.3565 29.5217 21.8693 29.6759L21.5327 29.7833L21.9443 30.2231H21.5609C21.4103 30.2231 21.2645 30.2783 21.1523 30.3785L20.8799 30.6203H21.2633C22.2857 30.6203 22.6619 31.0607 22.6619 31.0607H22.6631Z" fill="white"/>
<path d="M22.783 32.7281H23.7712L23.5703 32.4053C23.5703 32.4053 23.5288 32.5145 23.0434 32.4737C22.6612 32.4413 22.4525 32.2355 22.3589 32.1101C22.3223 32.0609 22.3379 31.9913 22.3925 31.9631C22.4255 31.9463 22.465 31.9487 22.495 31.9703L22.6882 32.1077C22.8232 32.2037 22.9847 32.2553 23.1503 32.2553L23.2061 32.1809C23.2397 32.1359 23.2198 32.0717 23.1664 32.0543C22.981 31.9943 22.6036 31.8683 22.399 31.7813C22.1206 31.6631 22.4375 31.1807 22.4375 31.1807C22.4375 31.1807 22.1914 30.9941 21.6826 30.8819C21.3754 30.8141 21.0526 30.8759 20.8456 30.9353C20.7076 30.9749 20.5798 31.0403 20.5246 31.1969L20.248 31.9061L20.7964 31.6061C20.9704 31.5107 21.1672 31.4567 21.3646 31.4705C21.475 31.4783 21.5836 31.5041 21.6868 31.5479C21.757 31.5779 21.8068 31.6109 21.8068 31.6451C21.8068 31.7573 21.6353 31.7573 21.6353 31.7573L21.2446 31.7471C21.0622 31.7423 20.8823 31.7867 20.7239 31.8761L20.3572 32.0825L20.8294 32.5631C20.9464 32.6825 21.13 32.7065 21.2734 32.6207C21.4246 32.5307 21.6287 32.4371 21.8189 32.4437C22.1801 32.4557 22.783 32.7275 22.783 32.7275V32.7281Z" fill="white"/>
<path d="M25.9613 32.7881C25.8623 32.8445 25.7549 32.9099 25.6901 32.9855L25.5455 33.4007C25.5365 33.4265 25.5287 33.4535 25.5299 33.4805C25.5491 33.8621 25.5155 34.2059 25.4477 34.7441C25.4423 34.7891 25.4921 34.8209 25.5287 34.7945C25.6613 34.6985 25.8905 34.4687 26.1167 34.1075C26.5211 33.4607 26.5637 32.8853 26.5637 32.8853C26.5637 32.8853 26.2373 32.6315 25.9613 32.7875V32.7881Z" fill="white"/>
<path d="M25.4663 32.9719C24.7673 33.0409 23.9909 33.0325 23.9909 33.0325C23.9909 33.0325 23.2205 33.0409 22.5215 32.9719C22.5215 32.9719 22.5707 33.1297 22.5923 33.1807C22.6127 33.2287 22.6643 33.2803 22.7159 33.2899C22.9265 33.3271 23.2349 33.4039 23.9531 33.4345H24.0347C24.7529 33.4039 25.0619 33.3271 25.2719 33.2899C25.3235 33.2809 25.3751 33.2293 25.3955 33.1807C25.4171 33.1297 25.4657 32.9719 25.4657 32.9719H25.4663Z" fill="white"/>
<path d="M25.256 33.4698C24.7298 33.6162 24.1772 33.6318 24.0074 33.6324C24.0026 33.6324 23.9822 33.6324 23.9756 33.6324C23.7998 33.6312 23.2526 33.6144 22.7324 33.4698C22.6676 33.4518 22.6052 33.4932 22.613 33.5598C22.6376 33.777 22.7462 34.092 22.8692 34.2576C22.9436 34.3518 23.0636 34.0152 23.1038 33.9732C23.147 33.9276 23.303 34.1976 23.303 34.1976C23.303 34.1976 23.408 34.338 23.465 34.212C23.5076 34.1184 23.5094 34.0596 23.5274 34.0104C23.5352 33.9888 23.5568 33.9606 23.6186 34.0188C23.681 34.077 23.756 34.1562 23.756 34.1562C23.756 34.1562 23.8058 34.206 23.8514 34.1478C23.894 34.0938 23.9222 34.0032 23.9696 33.9876C23.9732 33.9864 24.014 33.9864 24.017 33.9876C24.065 34.002 24.0932 34.0932 24.1364 34.1478C24.182 34.206 24.2318 34.1562 24.2318 34.1562C24.2318 34.1562 24.3068 34.077 24.3692 34.0188C24.4316 33.9606 24.4526 33.9888 24.4604 34.0104C24.479 34.0596 24.4802 34.1184 24.5228 34.212C24.5798 34.338 24.6848 34.1976 24.6848 34.1976C24.6848 34.1976 24.8408 33.9276 24.8846 33.9732C24.9242 34.0152 25.0442 34.3518 25.1192 34.2576C25.2422 34.092 25.3508 33.777 25.3754 33.5598C25.3832 33.4932 25.3208 33.4518 25.256 33.4698Z" fill="white"/>
<path d="M26.3008 31.5485C26.4046 31.5041 26.5144 31.4789 26.6254 31.4711C26.8228 31.4573 27.0184 31.5119 27.1918 31.6067L27.7396 31.9061L27.463 31.1969C27.4078 31.0403 27.28 30.9749 27.142 30.9353C26.935 30.8759 26.6122 30.8141 26.305 30.8819C25.7962 30.9941 25.5502 31.1807 25.5502 31.1807C25.5502 31.1807 25.867 31.6625 25.5886 31.7813C25.384 31.8683 25.006 31.9937 24.8212 32.0543C24.7678 32.0717 24.748 32.1359 24.7816 32.1803L24.8374 32.2547C25.003 32.2547 25.1644 32.2031 25.2988 32.1071L25.492 31.9697C25.522 31.9481 25.5616 31.9457 25.5946 31.9625C25.6492 31.9907 25.6642 32.0603 25.6282 32.1095C25.5346 32.2349 25.3258 32.4407 24.9436 32.4731C24.4582 32.5145 24.4192 32.4053 24.4168 32.4047L24.2158 32.7275H25.204C25.204 32.7275 25.8076 32.4551 26.1682 32.4437C26.3584 32.4377 26.563 32.5313 26.7148 32.6219C26.8576 32.7071 27.0406 32.6825 27.1576 32.5637L27.6298 32.0831L27.2632 31.8767C27.1042 31.7873 26.9242 31.7429 26.7424 31.7477L26.3524 31.7579C26.3524 31.7579 26.1808 31.7579 26.1808 31.6457C26.1808 31.6121 26.2306 31.5785 26.3008 31.5485Z" fill="white"/>
<path d="M31.2652 28.8139L30.6778 29.2543L30.1246 27.6847C31.1596 25.8181 31.4374 23.6815 31.141 21.3391C29.9218 21.8353 28.7722 22.4791 27.7198 23.3263L27.5704 23.2579C27.007 22.9999 26.4184 22.8037 25.8148 22.6723C25.2232 22.5433 24.6172 22.4911 24.0118 22.4911H23.977C23.3716 22.4911 22.7656 22.5433 22.174 22.6723C21.571 22.8037 20.9824 22.9999 20.4184 23.2579L20.269 23.3263C19.2166 22.4785 18.067 21.8353 16.8478 21.3391C16.5514 23.6815 16.8292 25.8187 17.8642 27.6847L17.311 29.2543L16.7236 28.8139C16.7668 29.6293 17.0542 30.3577 17.695 30.9595L17.029 30.8125C17.515 31.6501 18.0982 32.3191 18.8356 32.7205L18.2146 32.6527C18.8632 33.5671 19.666 34.2559 20.6536 34.6741C20.8408 34.7557 21.2476 36.0343 21.7216 37.6771C21.8386 38.0833 22.0192 38.4685 22.2574 38.8177C22.4122 39.0553 23.2768 39.2797 23.725 39.3817C23.9038 39.4225 24.0874 39.4225 24.2662 39.3817C24.715 39.2791 25.579 39.0553 25.7338 38.8177C25.9714 38.4685 26.1526 38.0827 26.2696 37.6771C26.743 36.0343 27.1498 34.7557 27.3376 34.6741C28.3252 34.2565 29.128 33.5677 29.7766 32.6527L29.1556 32.7205C29.893 32.3185 30.4762 31.6501 30.9622 30.8125L30.2962 30.9595C30.937 30.3577 31.2238 29.6293 31.267 28.8139H31.2652ZM30.739 22.2283C30.6424 23.4655 29.6056 24.7609 29.6056 24.7609L30.5158 24.6235C30.5158 24.6235 30.217 25.3681 29.668 25.5835C29.7004 25.8097 30.1648 25.8139 30.1648 25.8139L29.755 26.0179L30.0778 26.4373L29.8672 26.5183L29.8084 27.1153C29.2438 25.3591 28.399 24.4555 28.399 24.4555C30.5128 23.3047 30.739 22.2283 30.739 22.2283ZM17.8234 25.8139C17.8234 25.8139 18.2878 25.8097 18.3202 25.5835C17.7712 25.3681 17.4724 24.6235 17.4724 24.6235L18.3826 24.7609C18.3826 24.7609 17.3458 23.4661 17.2486 22.2283C17.2486 22.2283 17.4754 23.3047 19.5886 24.4555C19.5886 24.4555 18.7438 25.3591 18.1792 27.1153L18.1204 26.5183L17.9098 26.4373L18.2326 26.0179L17.8228 25.8139H17.8234ZM27.9334 32.0599L28.5772 31.9531C27.9196 32.4379 27.3742 33.0589 26.9962 33.8839L26.1268 36.3001C26.134 36.6739 26.0944 37.0393 26.0176 37.3981C25.9258 37.8277 25.7986 38.2123 25.4686 38.5021C25.2544 38.5963 24.0196 38.6491 23.9932 38.6491C23.9668 38.6491 22.732 38.5963 22.5178 38.5021C22.1878 38.2123 22.06 37.8277 21.9688 37.3981C21.8926 37.0393 21.853 36.6739 21.8602 36.3001L20.9908 33.8839C20.6134 33.0589 20.0674 32.4379 19.4098 31.9531L20.0536 32.0599L18.3142 30.8803C18.6856 30.6835 18.8968 30.4261 18.958 30.1123C18.5506 29.9023 17.9314 29.2345 17.7592 28.7671C18.0328 28.8439 18.625 29.1565 18.8788 29.0509C18.6976 28.5259 18.205 27.8113 18.4042 27.4231L19.5316 28.1113C19.1734 28.3873 19.0384 28.8151 19.1608 29.2087C18.9874 29.3041 18.7828 29.3401 18.5626 29.3443C18.6688 29.6095 18.9142 29.8051 19.2742 29.9425C19.2484 30.1867 19.0846 30.5221 18.8182 30.8677C19.0924 31.1005 19.7146 31.0717 19.7146 31.0717C19.7146 31.0717 19.9858 30.6085 20.3584 30.5749C20.5876 30.5539 20.68 30.4177 20.7172 30.3163C20.7622 30.1939 20.8222 30.0769 20.9098 29.9803C20.9854 29.8963 21.0814 29.8123 21.1828 29.7733C20.7538 29.6155 20.4262 29.4343 20.257 29.0731C20.0878 28.7119 20.2006 28.0003 20.2006 28.0003L19.7068 27.5629L20.686 27.7855L21.7474 28.8019C21.7474 28.8019 22.4626 29.5489 22.9444 29.4085C23.554 29.1709 23.7574 28.9711 23.7574 28.9711C23.617 28.4563 22.8304 28.0075 22.5094 27.8257L23.4298 28.0255C23.4298 28.0255 23.17 27.6385 23.1478 27.0853C23.125 26.5321 23.1448 26.5345 23.1448 26.5345C23.1448 26.5345 22.6396 26.2429 22.4248 25.7191C22.0882 24.8971 21.4756 24.5269 21.2584 24.4975L21.4198 24.8893C20.9032 25.1155 20.1658 25.4137 19.6666 25.8811L20.5294 25.8373C20.1088 26.1103 19.321 26.5699 19.033 26.9959L19.561 27.4213L18.5644 27.0763C18.8656 26.6287 19.489 26.1559 19.7698 25.9159L19.21 26.0023C19.8076 25.4419 20.5042 24.8413 21.148 24.5563L20.6158 24.0481C20.6158 24.0481 22.0852 24.1045 22.492 25.0081C22.588 25.2217 22.6666 25.3957 22.7302 25.5367C22.8976 25.9063 23.1478 26.0119 23.4628 26.2681C23.4628 26.2681 23.2882 27.4363 23.9812 28.6897H24.0052C24.6982 27.4363 24.5236 26.2681 24.5236 26.2681C24.8386 26.0119 25.0888 25.9063 25.2562 25.5367C25.3198 25.3957 25.3984 25.2223 25.4944 25.0081C25.9006 24.1045 27.3706 24.0481 27.3706 24.0481L26.8384 24.5563C27.4822 24.8413 28.1788 25.4419 28.7764 26.0023L28.2166 25.9159C28.498 26.1565 29.1208 26.6293 29.422 27.0763L28.4254 27.4213L28.9534 26.9959C28.666 26.5699 27.8776 26.1097 27.457 25.8373L28.3204 25.8811C27.8212 25.4137 27.0838 25.1155 26.5672 24.8893L26.7286 24.4975C26.5108 24.5275 25.8988 24.8971 25.5622 25.7191C25.348 26.2429 24.8422 26.5345 24.8422 26.5345C24.8422 26.5345 24.862 26.5321 24.8392 27.0853C24.817 27.6385 24.5572 28.0255 24.5572 28.0255L25.4776 27.8257C25.1572 28.0075 24.3706 28.4563 24.2296 28.9711C24.2296 28.9711 24.433 29.1709 25.0426 29.4085C25.5244 29.5489 26.2396 28.8019 26.2396 28.8019L27.301 27.7855L28.2802 27.5629L27.7864 28.0003C27.7864 28.0003 27.8992 28.7119 27.73 29.0731C27.5608 29.4343 27.2332 29.6149 26.8042 29.7733C26.9056 29.8123 27.001 29.8963 27.0772 29.9803C27.1648 30.0769 27.2248 30.1939 27.2698 30.3163C27.307 30.4183 27.3994 30.5539 27.6286 30.5749C28.0012 30.6091 28.2724 31.0717 28.2724 31.0717C28.2724 31.0717 28.894 31.1011 29.1688 30.8677C28.903 30.5221 28.7392 30.1861 28.7134 29.9425C29.0728 29.8045 29.3182 29.6095 29.425 29.3443C29.2042 29.3401 29.0002 29.3041 28.8268 29.2087C28.9492 28.8151 28.8142 28.3873 28.456 28.1113L29.5834 27.4231C29.7826 27.8113 29.29 28.5259 29.1088 29.0509C29.3626 29.1565 29.9554 28.8439 30.2284 28.7671C30.0568 29.2351 29.437 29.9023 29.0296 30.1123C29.0908 30.4261 29.3014 30.6835 29.6734 30.8803L27.934 32.0599H27.9334Z" fill="white"/>
<path d="M37.4358 23.5637L36.9426 23.5829C36.8298 23.5871 36.7344 23.6687 36.714 23.7797C36.6672 24.0347 36.558 24.4847 36.3408 24.7301C36.6558 24.7037 36.9234 24.5681 37.101 24.4517C37.2438 24.3575 37.3518 24.2195 37.4148 24.0611L37.5492 23.7251C37.581 23.6459 37.5204 23.5607 37.4358 23.5643V23.5637Z" fill="white"/>
<path d="M37.9922 23.6935L37.7534 23.6665L37.6172 24.0283L37.7198 24.3283L38.0762 24.0937C38.171 24.0313 38.1866 23.8975 38.108 23.8153L37.9928 23.6941L37.9922 23.6935Z" fill="white"/>
<path d="M37.7537 23.5092L38.1563 23.5638L38.0879 23.3454L36.3623 22.554C36.5375 22.7658 36.5669 23.1258 36.5045 23.4162C36.5045 23.4162 37.2833 23.0586 37.7537 23.5086V23.5092Z" fill="white"/>
<path d="M34.37 22.0085C33.845 21.8993 33.4424 21.8381 33.4424 21.8381C33.8294 22.0205 34.1078 22.2659 34.2584 22.5857C34.2848 22.6421 34.3544 22.6631 34.409 22.6331L34.586 22.5371C34.6472 22.5041 34.724 22.5353 34.7438 22.6025L34.8116 22.8287C34.8362 22.9115 34.9424 22.9349 34.9994 22.8701L35.2232 22.6163C35.2232 22.6163 35.762 22.6709 35.6732 23.1827L35.6522 23.2739C35.639 23.3309 35.6186 23.3861 35.591 23.4377L35.5712 23.4755C35.5712 23.4755 35.9534 23.4143 36.1172 23.3255C36.281 23.2367 36.3284 22.9505 36.1922 22.7867C36.056 22.6229 35.5988 22.2341 34.3706 22.0091L34.37 22.0085Z" fill="white"/>
<path d="M32.9342 23.9262L33.5924 24.798L33.8156 23.9292C33.8306 23.8698 33.7892 23.8116 33.728 23.8062L33.5252 23.7894C33.5168 23.7888 33.5096 23.7822 33.5084 23.7732L33.446 23.3358C33.4352 23.2608 33.3476 23.2254 33.2876 23.2722L33.1082 23.4126L33.2312 22.8942C33.2312 22.6356 33.0128 22.5444 32.7266 22.5054L32.7692 22.7586C32.804 22.9662 32.81 23.1774 32.7872 23.3868C32.7656 23.5788 32.819 23.7714 32.9348 23.9256L32.9342 23.9262Z" fill="white"/>
<path d="M34.2951 26.115C34.1337 26.0514 34.1769 26.1894 34.2285 26.2392C34.2687 26.2782 34.3089 26.3178 34.3461 26.3604L34.6791 26.7414C34.7691 26.8446 34.9293 26.8488 35.0229 26.7492C35.1867 26.5752 35.4213 26.2872 35.5497 25.9512C35.0835 26.1984 34.5501 26.2158 34.2945 26.115H34.2951Z" fill="white"/>
<path d="M33.8624 25.5263C33.8768 25.5671 33.9308 25.5791 33.959 25.5467C34.0178 25.4777 34.0706 25.3805 34.1162 25.2527C34.1294 25.2155 34.1012 25.1753 34.0616 25.1801C33.986 25.1885 33.9074 25.1885 33.8252 25.1801C33.7838 25.1759 33.7532 25.2173 33.767 25.2563L33.863 25.5269L33.8624 25.5263Z" fill="white"/>
<path d="M35.0871 25.9032L35.0715 25.803C35.0643 25.5942 34.9461 25.4106 34.7673 25.3014C34.5483 25.1676 34.2843 24.8628 34.2801 24.1704C34.2771 23.6376 34.1571 23.2224 34.0257 22.9272C33.8097 22.4412 33.3363 22.1118 32.8041 22.113C32.7981 22.113 32.7921 22.113 32.7867 22.113C32.7315 22.1136 32.6859 22.1574 32.6787 22.212C32.6787 22.2132 32.6787 22.215 32.6787 22.2162C32.6709 22.2768 32.7129 22.332 32.7729 22.3416C33.1761 22.4028 33.4095 22.569 33.4389 22.86C33.4425 22.8954 33.4497 22.9308 33.4653 22.9632L33.6321 23.3148C33.6693 23.3928 33.7413 23.4438 33.8241 23.469C33.9627 23.511 34.0473 23.6514 34.0197 23.7942L33.8217 24.8208C33.8091 24.8862 33.8379 24.954 33.8961 24.9864C33.9957 25.041 34.1217 25.0482 34.2555 25.0404C34.2897 25.0386 34.3185 25.068 34.3131 25.1016C34.2687 25.3956 34.1631 25.6704 33.9603 25.9152C34.4205 25.956 34.8201 26.0268 35.0877 25.9014L35.0871 25.9032Z" fill="white"/>
<path d="M39.2472 22.053C38.9844 21.9006 38.6208 21.6138 38.4006 21.285C38.0886 20.8188 37.659 20.466 37.0056 20.3478L37.0842 19.851C37.1094 19.6914 37.077 19.5288 36.9942 19.3926C36.9486 19.3176 36.9108 19.2384 36.8766 19.1574C36.4704 18.1794 35.6268 17.3208 34.6176 16.5084C35.1462 15.7848 35.5692 14.769 35.904 13.5066C35.904 13.5066 35.3658 13.7712 34.1694 14.13C32.5254 14.6688 31.506 16.0656 31.506 16.0656C31.506 16.0656 31.4646 16.5384 31.5774 17.268L31.1562 16.1478C31.1562 16.1478 31.5732 15.3324 31.6506 15.255L31.1268 15.219C30.1398 17.4246 29.5794 19.5624 29.5518 21.6168L30.0186 21.3708C30.243 21.2748 30.5244 21.0864 30.5982 20.8536L30.6624 20.652C30.5274 20.6166 30.1188 20.754 29.9202 20.9226C30.3318 20.3028 30.8346 19.7532 30.96 19.2906C30.873 19.2444 30.4164 19.287 30.2892 19.3554C30.7596 18.957 31.3998 18.5862 31.9884 18.4884L31.2438 18.1638C31.9332 18.015 32.7126 17.9904 33.3576 18.1188L32.8572 17.6586L34.3284 18.5076C33.6144 18.3174 32.6208 18.1284 32.0604 18.2808L32.7528 18.432C32.2902 18.522 31.3488 18.753 31.1508 19.182L31.785 19.1556C31.4748 19.3584 30.8802 19.824 30.7578 20.2686C30.9822 20.025 31.3104 20.0556 31.4826 19.9908L30.8154 21.0222L31.4466 20.7246C31.761 22.116 31.6974 23.4432 31.6116 24.4692L32.5674 25.4586L32.1648 25.3974C32.4438 25.7574 32.7336 26.0712 33.0486 26.2812L32.5794 26.2506C32.7786 26.568 32.9994 26.835 33.2502 27.0312L32.805 26.964L33.2196 27.8478C33.5718 28.1052 33.9678 27.9876 34.3836 27.6954L34.6872 27.474C34.7622 27.4188 34.7844 27.3168 34.7388 27.2358L33.8922 26.1858C33.5988 25.3632 33.1566 24.6924 32.6004 24.1392C32.4876 24.027 32.4144 23.8806 32.3898 23.7234L32.1222 21.993C32.3568 21.5964 32.9142 21.5088 33.6198 21.5628L34.713 21.7206C34.8774 21.7446 35.043 21.7572 35.2092 21.7584C35.541 21.7608 36.1638 21.7752 36.6564 21.8448C37.362 21.9444 38.1114 22.6248 38.1114 22.6248L37.6062 22.8036C37.23 22.1508 36.7566 21.9792 36.4704 21.9618H35.5926L36.9108 22.6368L38.2188 23.2428L38.4036 23.6208C38.4594 23.7348 38.6154 23.7498 38.6922 23.649L38.9622 23.3448C39.0108 23.2902 38.9802 23.2038 38.9088 23.1912L38.7696 23.1672L38.7042 22.8504L38.358 22.5612L38.7606 22.4922L38.9862 22.7004C39.0264 22.74 39.0912 22.74 39.132 22.701C39.1746 22.6602 39.1758 22.5918 39.1338 22.551C39.051 22.4706 38.9034 22.3494 38.715 22.2924C38.4192 22.203 38.2296 22.26 38.2296 22.26L38.7492 21.9822L39.4926 22.4088C39.6168 22.4862 39.5886 22.6614 39.5238 22.698L39.255 22.881C39.1638 22.9434 39.1188 23.0544 39.1416 23.163C39.1416 23.163 39.675 22.9596 39.714 22.7064C39.753 22.4532 39.8016 22.3752 39.246 22.0536L39.2472 22.053ZM34.0164 15.6582C33.5286 15.966 33.4002 16.287 33.4002 16.287L33.5154 16.4922C33.5154 16.4922 33.0534 16.8132 33.5154 16.6974C33.6426 16.6656 33.762 16.6584 33.864 16.6626C33.9522 16.6668 34.038 16.6884 34.119 16.7232C33.9006 16.659 33.5358 17.0058 32.7396 17.3136C32.6628 16.2096 33.0276 15.8376 33.8496 15.2982C34.671 14.7594 35.2872 14.13 35.2872 14.13C35.2872 14.13 34.5042 15.3492 34.0164 15.6576V15.6582ZM34.0836 19.1532L34.4574 19.0302C34.8786 18.9864 35.2902 19.1748 35.532 19.5222C35.7582 19.8468 36.045 20.199 36.2514 20.2428C36.6456 20.3256 36.7956 20.2224 36.7956 20.2224C36.7956 20.2224 36.861 20.3844 36.4488 20.3952C36.1272 20.403 36.1206 20.4306 36.0192 20.3952C35.8788 20.3466 35.8956 20.3112 35.4258 20.4414C35.2638 20.4864 34.9818 20.5542 34.8612 20.481C34.614 20.3304 34.5804 20.0526 34.6398 19.7694L34.6872 19.545C34.7232 19.3752 34.5978 19.212 34.4244 19.206C34.23 19.1994 33.9534 19.2402 33.6264 19.3092L34.083 19.1538L34.0836 19.1532ZM35.0544 21.3342C34.008 21.447 32.5308 21.2934 32.5308 21.2934C32.5308 21.2934 33.2118 21.1998 32.6016 21.0678C32.2218 20.9856 31.8318 20.5458 31.8318 20.5458L33.2676 20.04C33.2676 20.04 32.6118 20.6982 33.207 21.006C33.8022 21.3138 34.0902 21.2496 34.3872 21.2112C34.9548 21.138 35.8812 21.0678 36.456 21.129C37.0308 21.1908 37.599 21.4674 37.7424 21.9294C37.2498 21.2622 36.1008 21.2214 35.0538 21.3342H35.0544Z" fill="white"/>
<path d="M11.0449 23.583L10.5517 23.5638C10.4665 23.5602 10.4065 23.646 10.4383 23.7246L10.5727 24.0606C10.6363 24.219 10.7443 24.357 10.8865 24.4512C11.0635 24.5682 11.3311 24.7038 11.6467 24.7296C11.4301 24.4848 11.3203 24.0342 11.2735 23.7792C11.2531 23.6682 11.1577 23.5866 11.0449 23.5824V23.583Z" fill="white"/>
<path d="M9.99562 23.6934L9.88041 23.8146C9.80181 23.8968 9.81741 24.0306 9.91221 24.093L10.2686 24.3276L10.3712 24.0276L10.235 23.6658L9.99621 23.6928L9.99562 23.6934Z" fill="white"/>
<path d="M9.90043 23.3455L9.83203 23.5639L10.2346 23.5093C10.705 23.0593 11.4838 23.4169 11.4838 23.4169C11.4214 23.1265 11.4508 22.7659 11.626 22.5547L9.90043 23.3461V23.3455Z" fill="white"/>
<path d="M12.7648 22.6158L12.9886 22.8696C13.0456 22.9344 13.1518 22.911 13.1764 22.8282L13.2442 22.602C13.264 22.5354 13.3408 22.5036 13.402 22.5366L13.579 22.6326C13.6336 22.662 13.7032 22.641 13.7296 22.5852C13.8796 22.266 14.158 22.0206 14.5456 21.8376C14.5456 21.8376 14.143 21.8988 13.618 22.008C12.3904 22.233 11.9332 22.6218 11.7964 22.7856C11.6602 22.9494 11.7076 23.2356 11.8714 23.3244C12.0352 23.4132 12.4174 23.4744 12.4174 23.4744L12.3976 23.4366C12.37 23.385 12.3496 23.3298 12.3364 23.2728L12.3154 23.1816C12.2266 22.6698 12.7654 22.6152 12.7654 22.6152L12.7648 22.6158Z" fill="white"/>
<path d="M15.262 22.5066C14.9758 22.5456 14.7574 22.6368 14.7574 22.8954L14.8804 23.4138L14.701 23.2734C14.6416 23.2266 14.5534 23.262 14.5426 23.337L14.4802 23.7744C14.479 23.7828 14.4718 23.7894 14.4634 23.7906L14.2606 23.8074C14.1994 23.8122 14.158 23.871 14.173 23.9304L14.3962 24.7992L15.0544 23.9274C15.1708 23.7732 15.2236 23.5806 15.202 23.3886C15.1786 23.1792 15.1846 22.968 15.22 22.7604L15.2626 22.5072L15.262 22.5066Z" fill="white"/>
<path d="M13.6417 26.3604C13.6789 26.3178 13.7191 26.2782 13.7593 26.2392C13.8109 26.1894 13.8541 26.0508 13.6927 26.115C13.4371 26.2158 12.9037 26.1984 12.4375 25.9512C12.5659 26.2872 12.8005 26.5752 12.9643 26.7492C13.0585 26.8488 13.2181 26.8446 13.3081 26.7414L13.6411 26.3604H13.6417Z" fill="white"/>
<path d="M13.926 25.1802C13.887 25.176 13.8582 25.2156 13.8714 25.2528C13.917 25.38 13.9698 25.4778 14.0286 25.5468C14.0568 25.5798 14.1108 25.5672 14.1252 25.5264L14.2212 25.2558C14.235 25.2168 14.2038 25.1748 14.163 25.1796C14.0808 25.1886 14.0022 25.1886 13.9266 25.1796L13.926 25.1802Z" fill="white"/>
<path d="M15.3088 22.2175C15.3088 22.2175 15.3088 22.2145 15.3088 22.2133C15.3016 22.1587 15.256 22.1149 15.2008 22.1143C15.1948 22.1143 15.1888 22.1143 15.1834 22.1143C14.6512 22.1125 14.1778 22.4419 13.9618 22.9285C13.8304 23.2237 13.7104 23.6383 13.7074 24.1717C13.7032 24.8641 13.4392 25.1689 13.2202 25.3027C13.042 25.4113 12.9232 25.5955 12.916 25.8043L12.9004 25.9045C13.168 26.0299 13.5676 25.9591 14.0278 25.9183C13.825 25.6735 13.7194 25.3987 13.675 25.1047C13.6696 25.0705 13.6984 25.0411 13.7326 25.0435C13.8664 25.0513 13.9918 25.0441 14.092 24.9895C14.1502 24.9577 14.1796 24.8899 14.167 24.8245C14.1286 24.6271 14.0368 24.1489 13.9696 23.8021C13.942 23.6581 14.023 23.5051 14.1658 23.4715C14.2498 23.4517 14.32 23.3947 14.3566 23.3167L14.5228 22.9657C14.5384 22.9333 14.5456 22.8979 14.5492 22.8625C14.5786 22.5709 14.812 22.4053 15.2152 22.3441C15.2752 22.3351 15.3172 22.2793 15.3094 22.2187L15.3088 22.2175Z" fill="white"/>
<path d="M17.1714 21.0215L16.5042 19.9901C16.6764 20.0549 17.0052 20.0243 17.229 20.2679C17.1066 19.8233 16.5126 19.3577 16.2018 19.1549L16.836 19.1813C16.638 18.7529 15.696 18.5219 15.234 18.4313L15.9264 18.2801C15.366 18.1277 14.3724 18.3173 13.6584 18.5069L15.1296 17.6579L14.6292 18.1181C15.2742 17.9897 16.053 18.0143 16.743 18.1631L15.9984 18.4877C16.587 18.5855 17.2272 18.9563 17.6976 19.3547C17.5704 19.2863 17.1138 19.2437 17.0268 19.2899C17.1528 19.7531 17.655 20.3021 18.0666 20.9219C17.868 20.7533 17.4594 20.6159 17.3244 20.6513L17.3886 20.8529C17.4624 21.0857 17.7438 21.2741 17.9682 21.3701L18.435 21.6161C18.4074 19.5617 17.847 17.4233 16.86 15.2183L16.3362 15.2543C16.4136 15.3317 16.8306 16.1471 16.8306 16.1471L16.4094 17.2673C16.5216 16.5377 16.4808 16.0649 16.4808 16.0649C16.4808 16.0649 15.4614 14.6681 13.8174 14.1293C12.621 13.7699 12.0828 13.5059 12.0828 13.5059C12.4176 14.7677 12.8406 15.7841 13.3692 16.5077C12.3606 17.3207 11.517 18.1787 11.1102 19.1567C11.0766 19.2377 11.0382 19.3169 10.9926 19.3919C10.9098 19.5281 10.8768 19.6907 10.9026 19.8503L10.9812 20.3471C10.3278 20.4653 9.89821 20.8187 9.58621 21.2843C9.36601 21.6131 9.00241 21.8999 8.73961 22.0523C8.18401 22.3739 8.23261 22.4519 8.27161 22.7051C8.31061 22.9583 8.84401 23.1617 8.84401 23.1617C8.86681 23.0531 8.82181 22.9421 8.73061 22.8797L8.46181 22.6967C8.39701 22.6601 8.36881 22.4849 8.49301 22.4075L9.23641 21.9809L9.75601 22.2587C9.75601 22.2587 9.56701 22.2017 9.27061 22.2911C9.08221 22.3481 8.93401 22.4693 8.85181 22.5497C8.80921 22.5911 8.81101 22.6589 8.85361 22.6997C8.89441 22.7387 8.95861 22.7381 8.99941 22.6991L9.22501 22.4909L9.62761 22.5599L9.28141 22.8491L9.21601 23.1659L9.07681 23.1899C9.00481 23.2025 8.97481 23.2889 9.02341 23.3435L9.29341 23.6477C9.37021 23.7485 9.52621 23.7335 9.58201 23.6195L9.76681 23.2415L11.0748 22.6355L12.393 21.9605H11.5152C11.229 21.9779 10.7556 22.1495 10.3794 22.8023L9.87421 22.6235C9.87421 22.6235 10.6236 21.9437 11.3292 21.8435C11.8218 21.7739 12.4446 21.7595 12.7764 21.7571C12.9426 21.7559 13.1082 21.7427 13.2726 21.7193L14.3658 21.5615C15.0714 21.5075 15.6288 21.5951 15.8634 21.9917L15.5958 23.7221C15.5712 23.8793 15.4986 24.0257 15.3852 24.1379C14.829 24.6911 14.3868 25.3613 14.0934 26.1845L13.2468 27.2345C13.2012 27.3155 13.2234 27.4181 13.2984 27.4727L13.602 27.6941C14.0184 27.9863 14.4138 28.1039 14.766 27.8465L15.1806 26.9627L14.7354 27.0299C14.9856 26.8337 15.2064 26.5667 15.4062 26.2493L14.937 26.2799C15.252 26.0693 15.5418 25.7561 15.8208 25.3961L15.4182 25.4573L16.374 24.4679C16.2876 23.4419 16.2246 22.1153 16.539 20.7233L17.1702 21.0209L17.1714 21.0215ZM12.6996 14.1305C12.6996 14.1305 13.3158 14.7593 14.1372 15.2987C14.9586 15.8381 15.324 16.2101 15.2472 17.3141C14.4516 17.0063 14.0862 16.6595 13.8678 16.7237C13.9488 16.6895 14.0346 16.6673 14.1228 16.6631C14.2248 16.6589 14.3442 16.6661 14.4714 16.6979C14.9334 16.8131 14.4714 16.4927 14.4714 16.4927L14.5866 16.2875C14.5866 16.2875 14.4582 15.9665 13.9704 15.6587C13.4826 15.3509 12.6996 14.1311 12.6996 14.1311V14.1305ZM11.1912 20.2217C11.1912 20.2217 11.3412 20.3249 11.7354 20.2421C11.9424 20.1983 12.2292 19.8467 12.4548 19.5215C12.6966 19.1741 13.1082 18.9863 13.5294 19.0295L13.9032 19.1525L14.3598 19.3079C14.0328 19.2389 13.7562 19.1987 13.5618 19.2047C13.3884 19.2107 13.263 19.3733 13.299 19.5437L13.3464 19.7681C13.4064 20.0513 13.3728 20.3291 13.125 20.4797C13.0044 20.5529 12.7224 20.4851 12.5604 20.4401C12.0906 20.3093 12.1074 20.3447 11.967 20.3939C11.8656 20.4293 11.859 20.4017 11.5374 20.3939C11.1252 20.3837 11.1906 20.2211 11.1906 20.2211L11.1912 20.2217ZM15.3852 21.0671C14.775 21.1991 15.456 21.2927 15.456 21.2927C15.456 21.2927 13.9794 21.4469 12.9324 21.3335C11.886 21.2207 10.7364 21.2615 10.2438 21.9287C10.3872 21.4667 10.956 21.1901 11.5302 21.1283C12.105 21.0665 13.0314 21.1367 13.599 21.2105C13.896 21.2489 14.184 21.3131 14.7792 21.0053C15.3744 20.6975 14.7186 20.0393 14.7186 20.0393L16.1544 20.5451C16.1544 20.5451 15.7644 20.9849 15.3846 21.0671H15.3852Z" fill="white"/>
<path d="M21.9736 29.4599C21.7942 29.2937 21.6328 29.1089 21.4906 28.9103C21.4066 28.7933 21.313 28.6661 21.2416 28.5803C21.0772 28.3835 20.6248 28.1807 20.6248 28.1807C20.6248 28.1807 20.1922 29.1701 20.9014 29.2727C21.6106 29.3753 21.9736 29.4599 21.9736 29.4599Z" fill="white"/>
<path d="M25.9834 29.4293C26.1628 29.2631 26.3242 29.0783 26.4664 28.8797C26.5504 28.7627 26.644 28.6355 26.7154 28.5497C26.8798 28.3529 27.3322 28.1501 27.3322 28.1501C27.3322 28.1501 27.7648 29.1395 27.0556 29.2421C26.3464 29.3447 25.9834 29.4293 25.9834 29.4293Z" fill="white"/>
<path d="M12.2334 20.2801C12.3456 20.1373 12.4434 19.9843 12.5268 19.8223C12.5802 19.7185 12.6414 19.6033 12.6876 19.5271C12.7896 19.3585 13.077 19.1785 13.077 19.1785C13.077 19.1785 13.3734 19.9987 12.9192 20.1001C12.465 20.2015 12.2334 20.2801 12.2334 20.2801Z" fill="white"/>
<path d="M35.7941 20.2801C35.6819 20.1373 35.5841 19.9843 35.5007 19.8223C35.4473 19.7185 35.3861 19.6033 35.3399 19.5271C35.2379 19.3585 34.9505 19.1785 34.9505 19.1785C34.9505 19.1785 34.6541 19.9987 35.1083 20.1001C35.5625 20.2015 35.7941 20.2801 35.7941 20.2801Z" fill="white"/>
</svg>
